<svg xmlns="http://www.w3.org/2000/svg" xmlns:xlink="http://www.w3.org/1999/xlink" width="500" zoomAndPan="magnify" viewBox="0 0 375 209.999996" height="280" preserveAspectRatio="xMidYMid meet" version="1.0"><defs><g/><clipPath id="ec6742e5f7"><path d="M 120.238281 1.085938 L 249.238281 1.085938 L 249.238281 130.085938 L 120.238281 130.085938 Z M 120.238281 1.085938 " clip-rule="nonzero"/></clipPath></defs><g clip-path="url(#ec6742e5f7)"><path fill="#e49415" d="M 209.492188 43.183594 L 210.214844 43.183594 C 212.804688 43.183594 214.097656 44.71875 214.097656 47.789062 L 214.097656 48.242188 C 213.554688 48.300781 213.285156 48.542969 213.285156 48.960938 C 215.273438 48.480469 217.082031 48.242188 218.707031 48.242188 L 221.414062 48.242188 C 228.886719 48.242188 234.816406 51.820312 239.210938 58.988281 L 239.210938 61.339844 C 239.210938 63.328125 234.816406 64.621094 226.023438 65.222656 C 206.148438 69.742188 190.339844 74.738281 178.597656 80.21875 C 169.140625 85.039062 161.402344 89.433594 155.378906 93.410156 L 154.660156 93.410156 L 154.660156 92.234375 C 155.199219 92.234375 172.964844 80.523438 207.957031 57.09375 C 209.160156 58.117188 210.183594 58.628906 211.027344 58.628906 C 213.074219 57.964844 214.097656 56.824219 214.097656 55.195312 C 214.097656 53.691406 213.195312 52.519531 211.390625 51.675781 C 208.558594 51.675781 207.140625 53.476562 207.140625 57.09375 C 206.839844 57.09375 189.078125 68.808594 153.84375 92.234375 C 153.480469 92.234375 152.851562 91.601562 151.949219 90.335938 C 158.332031 85.699219 173.386719 75.402344 197.117188 59.445312 C 198.742188 59.925781 199.765625 60.164062 200.1875 60.164062 C 201.996094 59.683594 202.894531 58.660156 202.894531 57.09375 L 202.894531 56.730469 C 202.894531 54.625 201.871094 53.570312 199.828125 53.570312 C 197.476562 53.933594 196.304688 55.105469 196.304688 57.09375 L 196.753906 58.628906 C 166.941406 79.226562 151.738281 89.523438 151.136719 89.523438 L 150.773438 89.523438 L 149.597656 87.988281 C 150.984375 86.605469 163.210938 77.84375 186.277344 61.699219 L 189.796875 61.699219 C 191.304688 60.738281 192.058594 59.589844 192.058594 58.265625 C 192.058594 56.460938 190.640625 55.4375 187.808594 55.195312 C 186.667969 55.496094 185.761719 56.519531 185.101562 58.265625 C 185.644531 59.894531 185.914062 60.917969 185.914062 61.339844 C 161.402344 78.5625 148.90625 87.175781 148.421875 87.175781 L 147.25 85.636719 L 147.25 85.277344 C 147.429688 84.855469 156.972656 77.507812 175.886719 63.234375 L 177.421875 63.6875 C 179.710938 63.144531 180.851562 61.851562 180.851562 59.800781 C 180.371094 57.996094 179.351562 57.09375 177.78125 57.09375 L 176.25 57.09375 C 175.886719 57.09375 175.253906 57.722656 174.347656 58.988281 L 174.347656 61.339844 L 175.074219 62.515625 C 173.6875 63.898438 164.171875 71.367188 146.527344 84.914062 C 146.164062 84.914062 145.382812 84.136719 144.179688 82.566406 C 153.03125 74.738281 159.988281 68.957031 165.046875 65.222656 C 167.515625 65.222656 169.050781 64.441406 169.652344 62.875 L 169.652344 62.152344 C 169.652344 60.046875 168.628906 58.871094 166.582031 58.628906 L 166.222656 58.628906 C 164.171875 58.628906 163.148438 59.925781 163.148438 62.515625 L 164.234375 64.410156 C 160.921875 67.480469 154.117188 73.292969 143.816406 81.84375 L 143.457031 81.84375 C 143.035156 81.84375 142.492188 81.304688 141.832031 80.21875 C 149.71875 71.246094 154.234375 66.757812 155.378906 66.757812 C 157.429688 66.757812 158.453125 65.734375 158.453125 63.6875 L 158.453125 62.515625 C 157.605469 60.949219 156.582031 60.164062 155.378906 60.164062 C 153.332031 60.164062 152.1875 61.460938 151.949219 64.046875 L 153.480469 66.757812 C 145.472656 75.25 141.347656 79.496094 141.109375 79.496094 L 140.746094 78.683594 C 143.273438 76.511719 144.539062 73.957031 144.539062 71.003906 C 144.539062 68.839844 143.511719 65.101562 141.46875 59.800781 C 141.46875 59.199219 144.691406 58.691406 151.136719 58.265625 L 151.136719 57.453125 C 150.109375 57.453125 149.597656 56.039062 149.597656 53.207031 C 151.042969 51.945312 152.582031 51.3125 154.207031 51.3125 C 156.792969 51.3125 158.089844 52.847656 158.089844 55.917969 L 158.089844 56.28125 C 157.546875 56.402344 157.277344 56.671875 157.277344 57.09375 L 157.730469 57.09375 C 159.476562 56.855469 160.890625 56.730469 161.976562 56.730469 L 162.695312 56.730469 L 162.695312 55.917969 C 161.433594 55.917969 160.800781 54.894531 160.800781 52.847656 L 160.800781 52.035156 C 161.582031 50.53125 163 49.773438 165.046875 49.773438 L 166.582031 49.773438 C 168.386719 49.773438 169.292969 51.433594 169.292969 54.746094 C 168.808594 55.046875 168.417969 55.195312 168.121094 55.195312 L 168.121094 55.558594 L 168.933594 55.558594 C 169.953125 55.558594 171.609375 55.285156 173.898438 54.746094 L 173.898438 54.382812 C 172.636719 54.382812 172.003906 53.238281 172.003906 50.949219 L 172.003906 50.136719 C 172.003906 49.476562 173.296875 48.84375 175.886719 48.242188 L 177.78125 48.242188 C 179.589844 48.242188 180.492188 49.898438 180.492188 53.207031 C 180.011719 53.449219 179.621094 53.570312 179.320312 53.570312 L 179.320312 54.019531 L 180.132812 54.019531 C 180.316406 54.019531 182.121094 53.75 185.550781 53.207031 L 185.550781 52.847656 C 183.988281 52.847656 183.203125 51.675781 183.203125 49.324219 L 183.203125 48.601562 C 184.410156 47.035156 186.066406 46.253906 188.171875 46.253906 C 190.523438 46.253906 191.695312 47.9375 191.695312 51.3125 C 191.09375 51.792969 190.582031 52.035156 190.160156 52.035156 L 190.160156 52.488281 L 190.882812 52.488281 C 191.0625 52.488281 192.871094 52.214844 196.304688 51.675781 L 196.304688 51.3125 C 195.039062 51.3125 194.40625 50.136719 194.40625 47.789062 L 194.40625 47.066406 C 195.429688 45.5 196.964844 44.71875 199.011719 44.71875 C 201.601562 44.71875 202.894531 46.253906 202.894531 49.324219 L 202.894531 49.773438 C 202.292969 50.257812 201.78125 50.5 201.363281 50.5 L 201.363281 50.949219 L 201.722656 50.949219 C 204.011719 50.40625 205.820312 50.136719 207.140625 50.136719 L 207.140625 49.324219 C 206.117188 49.324219 205.609375 48.300781 205.609375 46.253906 L 205.609375 45.53125 C 206.632812 43.964844 207.925781 43.183594 209.492188 43.183594 Z M 124.847656 65.945312 L 124.847656 66.757812 C 124.847656 73.261719 126.414062 80.609375 129.542969 88.800781 L 129.90625 88.800781 L 138.394531 80.671875 C 138.878906 80.730469 139.121094 80.972656 139.121094 81.390625 L 130.628906 90.335938 L 130.628906 91.058594 L 139.933594 82.207031 C 140.355469 82.207031 140.863281 82.722656 141.46875 83.742188 L 141.46875 84.101562 C 135.324219 90.066406 132.253906 93.410156 132.253906 94.132812 L 142.28125 84.464844 C 142.582031 84.464844 143.214844 85.125 144.179688 86.453125 L 144.179688 86.816406 L 134.152344 97.292969 L 134.152344 97.65625 L 134.511719 97.65625 L 144.992188 87.628906 L 145.351562 87.628906 C 145.773438 87.628906 146.285156 88.136719 146.890625 89.160156 L 136.050781 100.363281 L 136.050781 100.726562 L 147.25 89.886719 L 147.703125 89.886719 C 148.066406 89.886719 148.574219 90.394531 149.238281 91.417969 C 149.238281 91.839844 145.625 95.726562 138.394531 103.074219 L 138.394531 103.433594 L 149.960938 92.234375 C 150.324219 92.234375 150.984375 92.867188 151.949219 94.132812 C 151.949219 94.375 148.210938 98.105469 140.746094 105.332031 L 140.746094 106.144531 L 152.308594 94.945312 L 153.03125 94.945312 L 153.03125 95.667969 L 141.832031 107.320312 C 154.175781 119.425781 168.75 125.476562 185.550781 125.476562 C 202.414062 125.476562 217.351562 118.402344 230.359375 104.25 C 239.875 92.683594 244.632812 79.675781 244.632812 65.222656 C 244.632812 49.804688 238.816406 35.894531 227.195312 23.488281 C 214.851562 11.625 200.699219 5.691406 184.738281 5.691406 C 169.261719 5.691406 155.5 11.230469 143.457031 22.3125 C 131.046875 34.660156 124.847656 49.203125 124.847656 65.945312 Z M 183.925781 1.085938 L 186.277344 1.085938 C 208.796875 1.085938 227.195312 12.167969 241.46875 34.328125 C 246.648438 44.988281 249.238281 54.261719 249.238281 62.152344 L 249.238281 67.480469 C 249.238281 86.875 240.234375 103.886719 222.226562 118.519531 C 210.0625 126.234375 198.199219 130.085938 186.636719 130.085938 L 181.304688 130.085938 C 166.671875 130.085938 152.367188 123.640625 138.394531 110.753906 C 126.292969 97.144531 120.238281 82.992188 120.238281 68.296875 L 120.238281 64.046875 C 120.238281 43.875 129.394531 26.738281 147.703125 12.644531 C 158.964844 4.941406 171.039062 1.085938 183.925781 1.085938 " fill-opacity="1" fill-rule="nonzero"/></g><g fill="#ffffff" fill-opacity="1"><g transform="translate(22.872685, 177.704007)"><g><path d="M 15.222656 0.519531 C 22.21875 0.519531 26.496094 -3.347656 27.277344 -9.230469 L 21.4375 -9.230469 C 20.878906 -5.878906 18.421875 -4.28125 15.070312 -4.28125 C 9.863281 -4.28125 7.035156 -8.300781 7.035156 -14.214844 C 7.035156 -20.097656 9.863281 -24.117188 15.070312 -24.117188 C 18.421875 -24.117188 20.914062 -22.515625 21.4375 -19.5 L 27.277344 -19.5 C 26.496094 -25.082031 22.21875 -28.917969 15.222656 -28.917969 C 5.804688 -28.917969 1.453125 -22.070312 1.453125 -14.214844 C 1.453125 -6.363281 5.804688 0.519531 15.222656 0.519531 Z M 15.222656 0.519531 "/></g></g></g><g fill="#ffffff" fill-opacity="1"><g transform="translate(53.271469, 177.704007)"><g><path d="M 19.910156 0 L 19.910156 -4.800781 L 7.890625 -4.800781 L 7.890625 -28.394531 L 2.53125 -28.394531 L 2.53125 0 Z M 19.910156 0 "/></g></g></g><g fill="#ffffff" fill-opacity="1"><g transform="translate(75.447491, 177.704007)"><g><path d="M 5.878906 0 L 7.777344 -5.84375 L 18.609375 -5.84375 L 20.542969 0 L 26.164062 0 L 16.152344 -28.394531 L 10.269531 -28.394531 L 0.261719 0 Z M 13.210938 -22.550781 L 17.117188 -10.53125 L 9.304688 -10.53125 Z M 13.210938 -22.550781 "/></g></g></g><g fill="#ffffff" fill-opacity="1"><g transform="translate(103.725468, 177.704007)"><g><path d="M 13.808594 0.519531 C 20.503906 0.519531 24.414062 -2.867188 24.414062 -8.222656 C 24.414062 -14.664062 18.792969 -15.929688 14.066406 -16.96875 C 10.605469 -17.75 7.554688 -18.421875 7.554688 -21.027344 C 7.554688 -23.183594 9.488281 -24.339844 12.167969 -24.339844 C 15.070312 -24.339844 17.492188 -22.960938 18.199219 -19.945312 L 23.667969 -19.945312 C 22.777344 -26.085938 17.75 -28.917969 12.28125 -28.917969 C 6.550781 -28.917969 2.234375 -26.050781 2.234375 -20.578125 C 2.234375 -14.589844 7.515625 -13.433594 12.167969 -12.394531 C 15.777344 -11.609375 19.015625 -10.902344 19.015625 -7.964844 C 19.015625 -5.246094 16.785156 -4.054688 13.84375 -4.054688 C 10.867188 -4.054688 7.777344 -5.171875 6.847656 -9.230469 L 1.300781 -9.230469 C 2.007812 -1.898438 8.335938 0.519531 13.808594 0.519531 Z M 13.808594 0.519531 "/></g></g></g><g fill="#ffffff" fill-opacity="1"><g transform="translate(131.482545, 177.704007)"><g><path d="M 13.808594 0.519531 C 20.503906 0.519531 24.414062 -2.867188 24.414062 -8.222656 C 24.414062 -14.664062 18.792969 -15.929688 14.066406 -16.96875 C 10.605469 -17.75 7.554688 -18.421875 7.554688 -21.027344 C 7.554688 -23.183594 9.488281 -24.339844 12.167969 -24.339844 C 15.070312 -24.339844 17.492188 -22.960938 18.199219 -19.945312 L 23.667969 -19.945312 C 22.777344 -26.085938 17.75 -28.917969 12.28125 -28.917969 C 6.550781 -28.917969 2.234375 -26.050781 2.234375 -20.578125 C 2.234375 -14.589844 7.515625 -13.433594 12.167969 -12.394531 C 15.777344 -11.609375 19.015625 -10.902344 19.015625 -7.964844 C 19.015625 -5.246094 16.785156 -4.054688 13.84375 -4.054688 C 10.867188 -4.054688 7.777344 -5.171875 6.847656 -9.230469 L 1.300781 -9.230469 C 2.007812 -1.898438 8.335938 0.519531 13.808594 0.519531 Z M 13.808594 0.519531 "/></g></g></g><g fill="#ffffff" fill-opacity="1"><g transform="translate(159.239627, 177.704007)"><g><path d="M 7.890625 0 L 7.890625 -28.394531 L 2.53125 -28.394531 L 2.53125 0 Z M 7.890625 0 "/></g></g></g><g fill="#ffffff" fill-opacity="1"><g transform="translate(171.518565, 177.704007)"><g><path d="M 15.222656 0.519531 C 22.21875 0.519531 26.496094 -3.347656 27.277344 -9.230469 L 21.4375 -9.230469 C 20.878906 -5.878906 18.421875 -4.28125 15.070312 -4.28125 C 9.863281 -4.28125 7.035156 -8.300781 7.035156 -14.214844 C 7.035156 -20.097656 9.863281 -24.117188 15.070312 -24.117188 C 18.421875 -24.117188 20.914062 -22.515625 21.4375 -19.5 L 27.277344 -19.5 C 26.496094 -25.082031 22.21875 -28.917969 15.222656 -28.917969 C 5.804688 -28.917969 1.453125 -22.070312 1.453125 -14.214844 C 1.453125 -6.363281 5.804688 0.519531 15.222656 0.519531 Z M 15.222656 0.519531 "/></g></g></g><g fill="#ffffff" fill-opacity="1"><g transform="translate(206.978473, 178.249003)"><g><path d="M 14.925781 0.371094 C 18.980469 0.371094 23.074219 -1.265625 24.414062 -5.246094 L 24.414062 0 L 26.796875 0 L 26.796875 -14.589844 L 17.269531 -14.589844 L 17.269531 -12.28125 L 24.226562 -12.28125 C 24.226562 -6.179688 20.730469 -1.933594 14.886719 -1.933594 C 7.851562 -1.933594 4.429688 -7.628906 4.429688 -14.253906 C 4.429688 -20.617188 7.59375 -26.460938 14.847656 -26.460938 C 19.539062 -26.460938 22.515625 -24.226562 23.484375 -20.914062 L 26.347656 -20.914062 C 25.121094 -25.457031 21.214844 -28.769531 14.886719 -28.769531 C 5.917969 -28.769531 1.859375 -21.734375 1.859375 -14.179688 C 1.859375 -6.660156 5.917969 0.371094 14.925781 0.371094 Z M 14.925781 0.371094 "/></g></g></g><g fill="#ffffff" fill-opacity="1"><g transform="translate(238.712865, 178.249003)"><g><path d="M 12.800781 0.371094 C 19.761719 0.371094 22.925781 -3.574219 22.925781 -10.046875 L 22.925781 -28.394531 L 20.359375 -28.394531 L 20.359375 -10.046875 C 20.359375 -4.988281 18.125 -1.933594 12.800781 -1.933594 C 7.480469 -1.933594 5.246094 -4.988281 5.246094 -10.046875 L 5.246094 -28.394531 L 2.679688 -28.394531 L 2.679688 -10.046875 C 2.679688 -3.574219 5.84375 0.371094 12.800781 0.371094 Z M 12.800781 0.371094 "/></g></g></g><g fill="#ffffff" fill-opacity="1"><g transform="translate(266.950282, 178.249003)"><g><path d="M 5.507812 0 L 5.507812 -28.394531 L 2.941406 -28.394531 L 2.941406 0 Z M 5.507812 0 "/></g></g></g><g fill="#ffffff" fill-opacity="1"><g transform="translate(278.037653, 178.249003)"><g><path d="M 13.0625 0 L 13.0625 -26.089844 L 23.074219 -26.089844 L 23.074219 -28.394531 L 0.519531 -28.394531 L 0.519531 -26.089844 L 10.496094 -26.089844 L 10.496094 0 Z M 13.0625 0 "/></g></g></g><g fill="#ffffff" fill-opacity="1"><g transform="translate(304.228963, 178.249003)"><g><path d="M 3.238281 0 L 6.105469 -7.667969 L 19.5 -7.667969 L 22.367188 0 L 25.007812 0 L 14.292969 -28.394531 L 11.3125 -28.394531 L 0.59375 0 Z M 12.800781 -25.753906 L 18.683594 -9.972656 L 6.921875 -9.972656 Z M 12.800781 -25.753906 "/></g></g></g><g fill="#ffffff" fill-opacity="1"><g transform="translate(332.429171, 178.249003)"><g><path d="M 16.375 -12.839844 C 19.761719 -13.882812 21.773438 -16.523438 21.773438 -20.394531 C 21.773438 -25.679688 18.234375 -28.394531 12.765625 -28.394531 L 2.941406 -28.394531 L 2.941406 0 L 5.507812 0 L 5.507812 -12.355469 L 12.765625 -12.355469 C 13.136719 -12.355469 13.507812 -12.355469 13.84375 -12.394531 L 19.203125 0 L 22.03125 0 Z M 5.507812 -14.589844 L 5.507812 -26.089844 L 12.429688 -26.089844 C 16.746094 -26.089844 19.242188 -23.96875 19.242188 -20.320312 C 19.242188 -16.636719 16.820312 -14.589844 12.429688 -14.589844 Z M 5.507812 -14.589844 "/></g></g></g><g fill="#ffffff" fill-opacity="1"><g transform="translate(116.988184, 205.719875)"><g><path d="M 4.0625 -0.90625 C 4.394531 -0.90625 4.675781 -0.941406 4.90625 -1.015625 C 5.144531 -1.097656 5.34375 -1.207031 5.5 -1.34375 C 5.65625 -1.476562 5.765625 -1.640625 5.828125 -1.828125 C 5.898438 -2.015625 5.9375 -2.222656 5.9375 -2.453125 C 5.9375 -2.890625 5.78125 -3.234375 5.46875 -3.484375 C 5.15625 -3.742188 4.6875 -3.875 4.0625 -3.875 L 2.234375 -3.875 L 2.234375 -0.90625 Z M 2.234375 -7.59375 L 2.234375 -4.6875 L 3.75 -4.6875 C 4.070312 -4.6875 4.351562 -4.722656 4.59375 -4.796875 C 4.832031 -4.867188 5.03125 -4.96875 5.1875 -5.09375 C 5.34375 -5.21875 5.457031 -5.367188 5.53125 -5.546875 C 5.601562 -5.734375 5.640625 -5.929688 5.640625 -6.140625 C 5.640625 -6.640625 5.488281 -7.003906 5.1875 -7.234375 C 4.894531 -7.472656 4.429688 -7.59375 3.796875 -7.59375 Z M 3.796875 -8.5 C 4.316406 -8.5 4.765625 -8.445312 5.140625 -8.34375 C 5.515625 -8.238281 5.820312 -8.09375 6.0625 -7.90625 C 6.3125 -7.71875 6.492188 -7.484375 6.609375 -7.203125 C 6.722656 -6.929688 6.78125 -6.625 6.78125 -6.28125 C 6.78125 -6.070312 6.75 -5.867188 6.6875 -5.671875 C 6.625 -5.484375 6.523438 -5.304688 6.390625 -5.140625 C 6.265625 -4.972656 6.097656 -4.820312 5.890625 -4.6875 C 5.691406 -4.5625 5.457031 -4.457031 5.1875 -4.375 C 5.8125 -4.25 6.28125 -4.023438 6.59375 -3.703125 C 6.914062 -3.378906 7.078125 -2.953125 7.078125 -2.421875 C 7.078125 -2.054688 7.007812 -1.722656 6.875 -1.421875 C 6.738281 -1.128906 6.539062 -0.875 6.28125 -0.65625 C 6.03125 -0.445312 5.71875 -0.285156 5.34375 -0.171875 C 4.976562 -0.0546875 4.554688 0 4.078125 0 L 1.078125 0 L 1.078125 -8.5 Z M 3.796875 -8.5 "/></g></g></g><g fill="#ffffff" fill-opacity="1"><g transform="translate(134.147221, 205.719875)"><g><path d="M 4.28125 -3.390625 L 4.28125 0 L 3.125 0 L 3.125 -3.390625 L 0.015625 -8.5 L 1.015625 -8.5 C 1.117188 -8.5 1.203125 -8.472656 1.265625 -8.421875 C 1.328125 -8.367188 1.378906 -8.304688 1.421875 -8.234375 L 3.359375 -4.921875 C 3.429688 -4.785156 3.492188 -4.65625 3.546875 -4.53125 C 3.609375 -4.414062 3.664062 -4.296875 3.71875 -4.171875 C 3.757812 -4.296875 3.804688 -4.414062 3.859375 -4.53125 C 3.910156 -4.65625 3.972656 -4.785156 4.046875 -4.921875 L 5.984375 -8.234375 C 6.015625 -8.296875 6.0625 -8.351562 6.125 -8.40625 C 6.1875 -8.46875 6.269531 -8.5 6.375 -8.5 L 7.390625 -8.5 Z M 4.28125 -3.390625 "/></g></g></g><g fill="#ffffff" fill-opacity="1"><g transform="translate(151.039427, 205.719875)"><g/></g></g><g fill="#ffffff" fill-opacity="1"><g transform="translate(163.567408, 205.719875)"><g><path d="M 7.96875 -8.5 L 7.96875 0 L 7.390625 0 C 7.304688 0 7.234375 -0.015625 7.171875 -0.046875 C 7.109375 -0.078125 7.046875 -0.128906 6.984375 -0.203125 L 2.0625 -6.609375 C 2.070312 -6.515625 2.078125 -6.414062 2.078125 -6.3125 C 2.085938 -6.21875 2.09375 -6.128906 2.09375 -6.046875 L 2.09375 0 L 1.078125 0 L 1.078125 -8.5 L 1.671875 -8.5 C 1.722656 -8.5 1.765625 -8.492188 1.796875 -8.484375 C 1.835938 -8.484375 1.867188 -8.472656 1.890625 -8.453125 C 1.921875 -8.441406 1.953125 -8.421875 1.984375 -8.390625 C 2.015625 -8.367188 2.046875 -8.335938 2.078125 -8.296875 L 6.984375 -1.90625 C 6.984375 -2.007812 6.976562 -2.109375 6.96875 -2.203125 C 6.96875 -2.296875 6.96875 -2.390625 6.96875 -2.484375 L 6.96875 -8.5 Z M 7.96875 -8.5 "/></g></g></g><g fill="#ffffff" fill-opacity="1"><g transform="translate(182.113982, 205.719875)"><g><path d="M 6.328125 -0.9375 L 6.328125 0 L 1.078125 0 L 1.078125 -8.5 L 6.328125 -8.5 L 6.328125 -7.5625 L 2.234375 -7.5625 L 2.234375 -4.734375 L 5.546875 -4.734375 L 5.546875 -3.84375 L 2.234375 -3.84375 L 2.234375 -0.9375 Z M 6.328125 -0.9375 "/></g></g></g><g fill="#ffffff" fill-opacity="1"><g transform="translate(198.454719, 205.719875)"><g><path d="M 5.90625 -0.96875 L 5.90625 0 L 1.078125 0 L 1.078125 -8.5 L 2.234375 -8.5 L 2.234375 -0.96875 Z M 5.90625 -0.96875 "/></g></g></g><g fill="#ffffff" fill-opacity="1"><g transform="translate(214.036467, 205.719875)"><g><path d="M 5.4375 -7.171875 C 5.394531 -7.109375 5.351562 -7.0625 5.3125 -7.03125 C 5.269531 -7 5.222656 -6.984375 5.171875 -6.984375 C 5.097656 -6.984375 5.015625 -7.015625 4.921875 -7.078125 C 4.835938 -7.148438 4.722656 -7.226562 4.578125 -7.3125 C 4.441406 -7.394531 4.28125 -7.46875 4.09375 -7.53125 C 3.90625 -7.601562 3.671875 -7.640625 3.390625 -7.640625 C 3.140625 -7.640625 2.914062 -7.601562 2.71875 -7.53125 C 2.519531 -7.46875 2.351562 -7.375 2.21875 -7.25 C 2.09375 -7.132812 1.992188 -6.992188 1.921875 -6.828125 C 1.859375 -6.671875 1.828125 -6.5 1.828125 -6.3125 C 1.828125 -6.070312 1.882812 -5.875 2 -5.71875 C 2.113281 -5.5625 2.265625 -5.425781 2.453125 -5.3125 C 2.648438 -5.207031 2.867188 -5.113281 3.109375 -5.03125 C 3.359375 -4.957031 3.609375 -4.875 3.859375 -4.78125 C 4.117188 -4.695312 4.367188 -4.597656 4.609375 -4.484375 C 4.847656 -4.378906 5.0625 -4.242188 5.25 -4.078125 C 5.445312 -3.910156 5.601562 -3.707031 5.71875 -3.46875 C 5.84375 -3.226562 5.90625 -2.929688 5.90625 -2.578125 C 5.90625 -2.203125 5.835938 -1.851562 5.703125 -1.53125 C 5.578125 -1.207031 5.394531 -0.921875 5.15625 -0.671875 C 4.914062 -0.429688 4.617188 -0.242188 4.265625 -0.109375 C 3.910156 0.0234375 3.503906 0.09375 3.046875 0.09375 C 2.492188 0.09375 1.992188 -0.00390625 1.546875 -0.203125 C 1.097656 -0.398438 0.710938 -0.671875 0.390625 -1.015625 L 0.71875 -1.5625 C 0.75 -1.601562 0.785156 -1.640625 0.828125 -1.671875 C 0.878906 -1.703125 0.929688 -1.71875 0.984375 -1.71875 C 1.035156 -1.71875 1.09375 -1.695312 1.15625 -1.65625 C 1.226562 -1.613281 1.304688 -1.5625 1.390625 -1.5 C 1.472656 -1.4375 1.566406 -1.363281 1.671875 -1.28125 C 1.773438 -1.207031 1.894531 -1.140625 2.03125 -1.078125 C 2.164062 -1.015625 2.320312 -0.960938 2.5 -0.921875 C 2.675781 -0.878906 2.875 -0.859375 3.09375 -0.859375 C 3.363281 -0.859375 3.601562 -0.894531 3.8125 -0.96875 C 4.03125 -1.039062 4.210938 -1.144531 4.359375 -1.28125 C 4.503906 -1.425781 4.617188 -1.59375 4.703125 -1.78125 C 4.785156 -1.96875 4.828125 -2.175781 4.828125 -2.40625 C 4.828125 -2.664062 4.765625 -2.878906 4.640625 -3.046875 C 4.523438 -3.210938 4.375 -3.347656 4.1875 -3.453125 C 4 -3.566406 3.78125 -3.660156 3.53125 -3.734375 C 3.289062 -3.816406 3.039062 -3.894531 2.78125 -3.96875 C 2.53125 -4.050781 2.28125 -4.144531 2.03125 -4.25 C 1.789062 -4.363281 1.578125 -4.503906 1.390625 -4.671875 C 1.203125 -4.835938 1.046875 -5.046875 0.921875 -5.296875 C 0.804688 -5.554688 0.75 -5.875 0.75 -6.25 C 0.75 -6.550781 0.804688 -6.84375 0.921875 -7.125 C 1.046875 -7.40625 1.21875 -7.65625 1.4375 -7.875 C 1.65625 -8.09375 1.925781 -8.265625 2.25 -8.390625 C 2.582031 -8.523438 2.960938 -8.59375 3.390625 -8.59375 C 3.859375 -8.59375 4.285156 -8.515625 4.671875 -8.359375 C 5.066406 -8.210938 5.410156 -8 5.703125 -7.71875 Z M 5.4375 -7.171875 "/></g></g></g><g fill="#ffffff" fill-opacity="1"><g transform="translate(229.962145, 205.719875)"><g><path d="M 8.9375 -4.25 C 8.9375 -3.613281 8.832031 -3.03125 8.625 -2.5 C 8.425781 -1.96875 8.144531 -1.507812 7.78125 -1.125 C 7.414062 -0.738281 6.972656 -0.4375 6.453125 -0.21875 C 5.941406 -0.0078125 5.375 0.09375 4.75 0.09375 C 4.125 0.09375 3.550781 -0.0078125 3.03125 -0.21875 C 2.519531 -0.4375 2.078125 -0.738281 1.703125 -1.125 C 1.335938 -1.507812 1.054688 -1.96875 0.859375 -2.5 C 0.660156 -3.03125 0.5625 -3.613281 0.5625 -4.25 C 0.5625 -4.882812 0.660156 -5.46875 0.859375 -6 C 1.054688 -6.53125 1.335938 -6.988281 1.703125 -7.375 C 2.078125 -7.757812 2.519531 -8.054688 3.03125 -8.265625 C 3.550781 -8.484375 4.125 -8.59375 4.75 -8.59375 C 5.375 -8.59375 5.941406 -8.484375 6.453125 -8.265625 C 6.972656 -8.054688 7.414062 -7.757812 7.78125 -7.375 C 8.144531 -6.988281 8.425781 -6.53125 8.625 -6 C 8.832031 -5.46875 8.9375 -4.882812 8.9375 -4.25 Z M 7.75 -4.25 C 7.75 -4.769531 7.675781 -5.238281 7.53125 -5.65625 C 7.394531 -6.070312 7.195312 -6.421875 6.9375 -6.703125 C 6.675781 -6.992188 6.359375 -7.210938 5.984375 -7.359375 C 5.617188 -7.515625 5.207031 -7.59375 4.75 -7.59375 C 4.289062 -7.59375 3.875 -7.515625 3.5 -7.359375 C 3.132812 -7.210938 2.816406 -6.992188 2.546875 -6.703125 C 2.285156 -6.421875 2.082031 -6.070312 1.9375 -5.65625 C 1.800781 -5.238281 1.734375 -4.769531 1.734375 -4.25 C 1.734375 -3.726562 1.800781 -3.257812 1.9375 -2.84375 C 2.082031 -2.425781 2.285156 -2.070312 2.546875 -1.78125 C 2.816406 -1.5 3.132812 -1.28125 3.5 -1.125 C 3.875 -0.976562 4.289062 -0.90625 4.75 -0.90625 C 5.207031 -0.90625 5.617188 -0.976562 5.984375 -1.125 C 6.359375 -1.28125 6.675781 -1.5 6.9375 -1.78125 C 7.195312 -2.070312 7.394531 -2.425781 7.53125 -2.84375 C 7.675781 -3.257812 7.75 -3.726562 7.75 -4.25 Z M 7.75 -4.25 "/></g></g></g><g fill="#ffffff" fill-opacity="1"><g transform="translate(248.947514, 205.719875)"><g><path d="M 7.96875 -8.5 L 7.96875 0 L 7.390625 0 C 7.304688 0 7.234375 -0.015625 7.171875 -0.046875 C 7.109375 -0.078125 7.046875 -0.128906 6.984375 -0.203125 L 2.0625 -6.609375 C 2.070312 -6.515625 2.078125 -6.414062 2.078125 -6.3125 C 2.085938 -6.21875 2.09375 -6.128906 2.09375 -6.046875 L 2.09375 0 L 1.078125 0 L 1.078125 -8.5 L 1.671875 -8.5 C 1.722656 -8.5 1.765625 -8.492188 1.796875 -8.484375 C 1.835938 -8.484375 1.867188 -8.472656 1.890625 -8.453125 C 1.921875 -8.441406 1.953125 -8.421875 1.984375 -8.390625 C 2.015625 -8.367188 2.046875 -8.335938 2.078125 -8.296875 L 6.984375 -1.90625 C 6.984375 -2.007812 6.976562 -2.109375 6.96875 -2.203125 C 6.96875 -2.296875 6.96875 -2.390625 6.96875 -2.484375 L 6.96875 -8.5 Z M 7.96875 -8.5 "/></g></g></g></svg>